<svg width="62" height="51" viewBox="0 0 62 51" fill="none" xmlns="http://www.w3.org/2000/svg">
<path fill-rule="evenodd" clip-rule="evenodd" d="M28.8859 1.17361L4.70925 7.67819C2.04265 8.39562 0.458126 11.1401 1.17012 13.8082L7.65918 38.1246C8.37117 40.7926 11.1101 42.3739 13.7767 41.6565L23.9915 38.9083L22.6202 33.7696L18.4854 34.8821C15.2854 35.743 11.9988 33.8454 11.1444 30.6438L7.91357 18.537C7.05918 15.3353 8.9606 12.0419 12.1605 11.181L24.1772 7.948C27.3771 7.08709 30.6638 8.98464 31.5182 12.1863L31.6709 12.7584L36.7852 11.3825L35.0034 4.70552C34.2914 2.03747 31.5525 0.456174 28.8859 1.17361ZM37.7508 11.1227L35.969 4.44572C35.1146 1.24405 31.828 -0.653501 28.6281 0.207418L4.45141 6.712C1.25149 7.57292 -0.649933 10.8663 0.20446 14.068L6.69352 38.3844C7.54791 41.5861 10.8346 43.4836 14.0345 42.6227L24.2494 39.8744L26.0312 46.5514C26.8856 49.753 30.1722 51.6506 33.3721 50.7897L57.5488 44.2851C60.7487 43.4242 62.6501 40.1308 61.7957 36.9291L55.3067 12.6127C54.4523 9.41104 51.1656 7.51349 47.9657 8.37441L37.7508 11.1227ZM37.043 12.3487L31.9287 13.7246L33.2999 18.863L38.4142 17.487L37.043 12.3487ZM39.3799 17.2272L38.0087 12.0888L48.2235 9.3406C50.8901 8.62317 53.629 10.2045 54.341 12.8725L60.8301 37.1889C61.5421 39.857 59.9576 42.6015 57.291 43.3189L33.1143 49.8235C30.4477 50.5409 27.7088 48.9596 26.9968 46.2916L25.215 39.6146L30.3293 38.2387L30.4819 38.8105C31.3363 42.0122 34.623 43.9097 37.8229 43.0488L49.8396 39.8158C53.0395 38.9549 54.9409 35.6615 54.0865 32.4598L50.8557 20.353C50.0013 17.1514 46.7147 15.2538 43.5147 16.1147L39.3799 17.2272ZM38.6721 18.4532L33.5578 19.8291L34.749 24.2931C35.6034 27.4948 33.702 30.7881 30.502 31.6491L29.6658 31.874L31.0371 37.0127L37.9533 35.1519C40.6199 34.4345 42.2044 31.69 41.4924 29.0219L38.6721 18.4532ZM31.295 37.9789L38.2111 36.1181C41.4111 35.2572 43.3125 31.9638 42.4581 28.7621L39.6377 18.1934L43.7726 17.0809C46.4392 16.3635 49.1781 17.9448 49.8901 20.6128L53.1209 32.7196C53.8329 35.3877 52.2483 38.1322 49.5817 38.8496L37.565 42.0826C34.8984 42.8 32.1596 41.2187 31.4476 38.5507L31.295 37.9789ZM30.0715 37.2725L28.7002 32.1338L23.5859 33.5098L24.9572 38.6484L30.0715 37.2725ZM23.3281 32.5436L28.4423 31.1677L27.2511 26.7037C26.3967 23.502 28.2981 20.2087 31.498 19.3477L32.3343 19.1228L30.963 13.9844L24.0469 15.8452C21.3803 16.5626 19.7958 19.3071 20.5078 21.9751L23.3281 32.5436ZM30.7052 13.0182L30.5525 12.4461C29.8405 9.77805 27.1016 8.19676 24.435 8.91419L12.4184 12.1472C9.75176 12.8646 8.16724 15.6091 8.87923 18.2772L12.11 30.384C12.822 33.052 15.5609 34.6333 18.2275 33.9159L22.3624 32.8034L19.5421 22.235C18.6877 19.0333 20.5891 15.7399 23.7891 14.879L30.7052 13.0182ZM32.5921 20.089L31.7559 20.3139C29.0893 21.0314 27.5048 23.7758 28.2168 26.4439L29.408 30.9078L30.2442 30.6829C32.9108 29.9654 34.4953 27.221 33.7833 24.5529L32.5921 20.089Z" fill="white"/>
</svg>
